<?xml version="1.0" encoding="UTF-8"?>
<!DOCTYPE svg PUBLIC "-//W3C//DTD SVG 1.1//EN" "http://www.w3.org/Graphics/SVG/1.1/DTD/svg11.dtd">
<!-- Creator: CorelDRAW 2021 (64-Bit) -->
<svg xmlns="http://www.w3.org/2000/svg" xml:space="preserve" width="22.3076mm" height="17.7799mm" version="1.1" style="shape-rendering:geometricPrecision; text-rendering:geometricPrecision; image-rendering:optimizeQuality; fill-rule:evenodd; clip-rule:evenodd"
viewBox="0 0 968.47 771.9"
 xmlns:xlink="http://www.w3.org/1999/xlink"
 xmlns:xodm="http://www.corel.com/coreldraw/odm/2003">
 <defs>
  <style type="text/css">
   <![CDATA[
    .fil2 {fill:#001F54}
    .fil1 {fill:#1282A2}
    .fil0 {fill:#FF2E00}
   ]]>
  </style>
 </defs>
 <g id="Layer_x0020_1">
  <metadata id="CorelCorpID_0Corel-Layer"/>
  <path class="fil0" d="M138.08 444.67l0 289.41c0,19.58 18.26,37.83 37.84,37.83l232.66 0 0 -230.76 151.33 0 0 230.76 232.66 0c20.77,0 37.84,-21.29 37.84,-34.05l0 -293.19c0,-6.54 -35.7,-33.22 -40.55,-37.01 -34.23,-26.73 -73.77,-62.35 -108.9,-89.71l-184.55 -152.14c-17.37,-13.94 -7.6,-13.04 -55.39,25.66 -64.46,52.18 -132.6,111.04 -196.19,161.31 -7.77,6.14 -14.25,12.4 -21.59,18.13l-75.69 62.39c-3.28,2.47 -9.44,5.96 -9.44,11.37z"/>
  <path class="fil1" d="M-0 389.81c0,12.44 13.05,25.22 23.27,37.27 33.82,39.92 30.66,36.37 89.64,-13.27 8.97,-7.54 17.01,-13.91 25.67,-21.62 45.88,-40.86 112.68,-91.26 158.89,-132.41l186.78 -155.6c4.53,3.03 7.27,6.21 12.43,10.27l211.35 176.41c4.81,4.05 8.58,7.29 13.46,11.13l105.39 87.55c4.4,3.56 9.02,7.37 13.39,11.19 4.96,4.32 8.41,6.92 13.31,11.28l40.29 33.48c14.07,11.21 22.41,13.53 37.29,-2.2 3.63,-3.85 3.81,-4.69 6.77,-8.37 2.67,-3.33 4.45,-4.52 7.28,-7.85 4.71,-5.56 8.17,-9.84 12.75,-15.63 6.33,-8.02 9.69,-14.14 10.52,-19.4l0 -5c-1.7,-10.03 -13.81,-17.84 -32.42,-32.91l-92.91 -77.33c-9.39,-8.3 -12.9,-4.75 -12.89,-21.16l-0.03 -238.31c-1.32,-8.23 -9.06,-15.29 -18.76,-15.29l-117.28 0c-23.27,0 -18.92,33.06 -18.92,56.75 0,25.85 0,51.7 0,77.56 -4.46,-2.99 -6.58,-4.19 -10.87,-8.04 -4.56,-4.12 -7.02,-5.43 -11.35,-9.46 -7.32,-6.81 -13.87,-11.96 -21.55,-18.17 -16.9,-13.68 -100.13,-85.44 -111.02,-91.38 -25.59,-13.98 -55.46,-11.94 -79.44,4.42l-267.45 222.46c-45.13,39.36 -106.07,86.05 -148.52,123.86 -7.88,7.03 -25.08,16.93 -25.08,29.78z"/>
  <path class="fil1" d="M853.17 285.15l-7.56 -6.29 7.55 6.29 0 0zm-10.05 -8.37c-0.73,-0.65 -1.42,-1.22 -2.08,-1.74l2.08 1.74zm-11.23 -9.36c-1.14,-2.22 -1.64,-5.57 -1.63,-11.78l-0.03 -238.31c-1.32,-8.23 -9.06,-15.29 -18.76,-15.29l-117.28 0c-23.27,0 -18.92,33.06 -18.92,56.75 0,25.85 0,51.7 0,77.56l-3.86 -2.57 160.47 133.65z"/>
  <path class="fil2" d="M853.17 285.15l-10.02 -8.34c-0.82,-0.73 -1.59,-1.35 -2.32,-1.92l12.33 10.26 0.01 0zm-21.26 -17.69c-1.15,-2.22 -1.65,-5.57 -1.65,-11.82l-0.03 -238.31c-1.32,-8.23 -9.06,-15.29 -18.76,-15.29l-117.28 0c-23.27,0 -18.92,33.06 -18.92,56.75 0,25.85 0,51.7 0,77.56 -1.88,-1.26 -3.35,-2.2 -4.73,-3.16l161.35 134.28z"/>
 </g>
</svg>
