<?xml version="1.0" encoding="UTF-8"?>
<!DOCTYPE svg PUBLIC "-//W3C//DTD SVG 1.1//EN" "http://www.w3.org/Graphics/SVG/1.1/DTD/svg11.dtd">
<!-- Creator: CorelDRAW 2021 (64-Bit) -->
<svg xmlns="http://www.w3.org/2000/svg" xml:space="preserve" width="25.3999mm" height="25.4mm" version="1.1" style="shape-rendering:geometricPrecision; text-rendering:geometricPrecision; image-rendering:optimizeQuality; fill-rule:evenodd; clip-rule:evenodd"
viewBox="0 0 1355.38 1355.38"
 xmlns:xlink="http://www.w3.org/1999/xlink"
 xmlns:xodm="http://www.corel.com/coreldraw/odm/2003">
 <defs>
  <style type="text/css">
   <![CDATA[
    .str0 {stroke:#FF2E00;stroke-width:4.07;stroke-miterlimit:22.9256}
    .fil0 {fill:none}
    .fil3 {fill:black}
    .fil1 {fill:#001F54}
    .fil5 {fill:#1282A2}
    .fil8 {fill:#D0D0D0}
    .fil2 {fill:#E0EFDE}
    .fil7 {fill:#EFEFEF}
    .fil6 {fill:#F46533}
    .fil4 {fill:#FF2E00}
   ]]>
  </style>
 </defs>
 <g id="Layer_x0020_1">
  <metadata id="CorelCorpID_0Corel-Layer"/>
  <g id="_2542210586864">
   <circle class="fil0" cx="677.69" cy="677.69" r="677.69"/>
   <path class="fil1" d="M701 318.54c-7.4,15.41 -3.86,86.72 -3.86,107.93 0,9.32 6.1,15.42 15.42,15.42l67.45 0 0 273.67c0,9 4.49,13.5 13.49,13.5l262.11 0c9,0 13.5,-4.5 13.5,-13.5l0 -273.67 67.45 0c9.33,0 15.42,-6.09 15.42,-15.42 0,-21.21 3.54,-92.52 -3.85,-107.93 -23.72,-5.52 -106.44,-1.02 -142.71,-1.84 -16.89,-0.38 -25.86,-9.73 -40.38,-9.73 -8.66,0 -32.67,17.35 -40.47,17.35 -8.63,0 -28.01,-17.35 -42.4,-17.35 -7.47,0 -21.96,9.34 -38.46,9.72 -36.33,0.85 -118.89,-3.71 -142.7,1.84z"/>
   <path class="fil2" d="M595.3 326.25l-19.89 0c-3.16,16.23 -20.03,11.78 -49.81,11.54 -15.57,-0.13 -16.26,-2.31 -24.54,6.31l-30.63 31.08c-17.01,20.73 -18.66,25.8 -16.5,41.74l16.78 133.59c1.86,13.62 3.07,16.87 -4.49,24.73 -28.27,29.4 -32.4,37.85 -49.75,20.11 -14.4,-14.73 -26.66,-21.75 -25.96,-35.84 0.81,-16.46 4.82,-38.2 6.95,-55.21 2.34,-18.6 15.98,-94.96 10.17,-106.24 -6.7,-13 -19.06,-26.6 -27.12,-34.64 -15.5,-15.46 -20.62,-25.42 -33.98,-25.76 -29.43,-0.78 -94.33,-2.83 -120.97,0.79l0.45 81.18c17.27,1.72 66.76,-3.99 77.96,2.85 8.21,10.01 3.85,54.07 3.85,69.51l0.01 215.86 246.7 0 0 -217.79c0,-15.19 -4.27,-57.73 3.85,-67.6 11.18,-6.82 60.71,-1.11 78.33,-2.83l0.06 -81.56 -20.58 -0.26c0,11.18 5.02,51.55 -15.99,39.37 -9.26,-5.37 -4.08,-38.16 -4.9,-50.92z"/>
   <path class="fil2" d="M719.03 419.63c14.46,1.4 32.93,0.43 47.5,0.42 19.53,-0.01 34.68,-6.03 34.68,16.06l0 271.75 246.22 0 0.49 -271.75c0.03,-28.72 29.44,-11.25 81.81,-16.48l0.45 -81.18 -20.6 -0.65 0 25.06c0,22.26 -20.54,22.52 -20.54,0l0 -25.06 -82.56 0c-10.2,0 -17.36,11.76 -23.51,17.95 -43.68,43.98 -38.12,41.2 -32.56,90.94l13.32 119.78c3.92,33.4 6.87,28.3 -64.22,28.3 -23.83,0 -15.01,-20.31 -12.74,-40.66l11.94 -107.41c1.77,-15.78 8.19,-39.62 0.8,-51.03 -15.82,-24.43 -22.87,-29.14 -41.02,-47.68 -7.21,-7.36 -6.34,-10.26 -20.51,-10.33 -31.66,-0.14 -90.34,-3.12 -119,0.78l0.05 81.18z"/>
   <path class="fil3" d="M762.67 1006.58l323.78 0c15.28,0 13.78,-11.17 11.62,-23.12l-17.57 -100.05c-4.4,-22.06 -19.06,-121 -24.89,-133.15 -20.99,-4.89 -214.74,-1.93 -252.47,-1.93 -14.31,0 -13.48,13.11 -15.43,25.04l-36.09 206.76c-2.37,13.11 -5.08,26.45 11.05,26.45z"/>
   <path class="fil3" d="M276.99 1000.8c3.97,2.66 5,5.78 9.64,5.78l121.42 0c16.26,0 14.15,-17.07 16.23,-31.95 1.99,-14.22 4.97,-28.56 4.97,-43.21l3.85 0c0,14.65 2.98,28.99 4.97,43.21 2.08,14.88 -0.03,31.95 16.23,31.95l121.42 0c4.63,0 5.66,-3.12 9.63,-5.78 0,-24.33 -2.06,-42.81 -1.92,-65.54l-5.78 -132.98c0.09,-14.11 -2,-20.14 -1.93,-32.77 0.09,-13.04 -0.71,-21.18 -13.51,-21.18l-262.11 0c-11.88,0 -13.61,7 -13.56,19.21 0.06,13.6 -1.97,18.83 -1.88,32.8 0.09,13.7 -0.91,22.07 -1.8,32.89l-1.98 67.4c0.06,13.45 -2.09,18.72 -2,32.69 0.15,23.68 -1.9,42.44 -1.9,67.48z"/>
   <path class="fil1" d="M595.3 326.25c0.82,12.76 -4.36,45.55 4.9,50.92 21.01,12.18 15.99,-28.19 15.99,-39.37l20.58 0.26 -0.06 81.56c-17.62,1.72 -67.15,-3.99 -78.33,2.83 -8.12,9.87 -3.85,52.41 -3.85,67.6l0 217.79 -246.7 0 -0.01 -215.86c0,-15.45 4.36,-59.51 -3.85,-69.51 -11.2,-6.84 -60.69,-1.13 -77.96,-2.85l-0.45 -81.18c26.64,-3.62 91.54,-1.57 120.97,-0.79 13.36,0.35 18.48,10.3 33.98,25.76 8.06,8.04 20.42,21.63 27.12,34.64 5.81,11.28 -7.83,87.64 -10.17,106.24 -2.13,17.02 -6.14,38.75 -6.95,55.21 -0.7,14.09 11.56,21.11 25.96,35.84 17.35,17.75 21.48,9.3 49.75,-20.11 7.56,-7.87 6.35,-11.11 4.49,-24.73l-16.78 -133.59c-2.16,-15.94 -0.51,-21.01 16.5,-41.74l30.63 -31.08c8.28,-8.62 8.97,-6.45 24.54,-6.31 29.79,0.25 46.65,4.7 49.81,-11.54 -3.55,-8.2 -4.69,-9.59 -16.9,-9.77 -35.87,-0.51 -42.47,3.86 -74.03,-6.93 -17.82,-6.1 -17.84,-0.96 -39.77,9.03 -6.97,3.18 -10.69,7.44 -19.3,4 -5.03,-2.01 -12.35,-6.32 -18,-9.19 -21.32,-10.88 -18.95,-6.18 -40.9,0.23 -29.96,8.75 -122.45,-3.58 -158.9,4.91 -8.39,17.49 -3.76,74.18 -3.94,100.3 -0.21,31.08 15.51,23.05 82.96,23.05l-0.13 269.95c0.31,22.62 14.39,17.23 36.74,17.22l215.85 0c22.36,0.01 36.43,5.4 36.74,-17.22l-0.12 -269.95c17.34,0 34.7,-0.07 52.04,0.01 21.93,0.1 30.92,1.96 30.94,-21.09 0.02,-26.1 4.35,-84.92 -3.96,-102.26 -10.98,-2.56 -19.41,-1.86 -32.78,-1.94 -17.15,-0.11 -21.4,-2.43 -26.66,9.65z"/>
   <path class="fil4" d="M298 985.39l103.77 -0.05 16.05 -121.31c1.43,-10.6 -0.26,-32.59 13.36,-32.57 13.34,0.01 11.73,20.49 13.13,30.8l16.29 122.61 103.71 0.55 -7.6 -174.82c-17.48,0.03 -80.66,3.79 -90.84,-2.41 -5.34,-6.52 -5.36,-9.16 0,-15.69 10.3,-6.29 71.68,-1.09 89.54,-2.83l-0.31 -18.72c-8.04,-2.99 -239.87,-2.97 -247.75,0.01l-9.34 214.42z"/>
   <path class="fil3" d="M965.03 1039.34c0,23.61 -2.42,89.26 1.93,107.93 16,7.67 107.45,3.85 131.06,3.85 30.04,0 51.32,-18.27 53.54,-44.8 1.93,-23.12 -17.64,-49.64 -47.75,-49.64l-34.69 0c0,-38.65 7.81,-30.84 -90.59,-30.84 -9,0 -13.49,4.49 -13.49,13.49z"/>
   <path class="fil3" d="M780.01 1039.34l0 17.35c-27.59,0 -51.12,-3.92 -68.97,13.91 -7.04,7.03 -14.61,22.2 -13.48,35.73 2.21,26.53 23.51,44.8 53.54,44.8 23.6,0 115.06,3.82 131.06,-3.85 4.35,-18.67 1.93,-84.32 1.93,-107.93 0,-9 -4.49,-13.49 -13.49,-13.49l-77.09 0c-9,0 -13.49,4.49 -13.49,13.49z"/>
   <path class="fil3" d="M471.65 1039.34c0,23.61 -2.42,89.26 1.93,107.93 4.66,2.24 8.43,3.85 15.42,3.85l154.18 0c31.54,0 8.68,-62.13 -28.31,-77.69 -11.64,-4.9 -23.32,-7.11 -39.15,-7.11 0,-50.15 11.59,-40.47 -90.59,-40.47 -9,0 -13.49,4.49 -13.49,13.49z"/>
   <path class="fil3" d="M286.63 1039.34l0 26.98c-37.96,0 -71.18,18.39 -80.12,56.72 -3.35,14.35 -4.34,28.07 12.67,28.07l154.18 0c6.99,0 10.76,-1.62 15.42,-3.85 4.35,-18.67 1.93,-84.32 1.93,-107.93 0,-9 -4.49,-13.49 -13.49,-13.49l-77.09 0c-9,0 -13.49,4.49 -13.49,13.49z"/>
   <path class="fil5" d="M975.06 985.04l101.58 0.35 -37.24 -215.1 -31.08 -0.89 19.5 150.81c1.5,11.45 11.33,43 -5.09,44.26 -13.9,1.06 -12.29,-18.07 -15.14,-40.9l-19.97 -153.51 -31.23 -0.62 18.67 215.61z"/>
   <path class="fil1" d="M853.25 264.58c-26.22,0 -52.03,-6.46 -52.03,13.5 0,6.23 7,9.63 13.49,9.63l219.71 0c11.65,0 13.5,-6.15 13.5,-13.49 0,-14.85 -36.93,-9.64 -52.04,-9.64 -1.26,-15.19 -13.84,-35.23 -23.05,-42.48 -31.51,-24.81 -63.48,-25.02 -95.41,-0.82 -10.17,7.71 -22.86,27.65 -24.16,43.29z"/>
   <path class="fil1" d="M359.87 264.58c-26.22,0 -52.03,-6.46 -52.03,13.5 0,6.23 7,9.63 13.49,9.63l167.67 0c25.69,0 11.65,-37.05 4.29,-48.62 -29.91,-47 -91.82,-47.08 -122.68,-2.31 -4.64,6.73 -9.95,18.25 -10.74,27.8z"/>
   <polygon class="fil5" points="894.65,985.39 954.43,985.39 935.73,769.86 913.32,769.59 "/>
   <polygon class="fil5" points="833.45,985.37 874.11,985.3 892.79,769.52 861.49,769.68 "/>
   <polygon class="fil5" points="772.33,985.18 812.88,985.41 840.91,769.53 809.67,769.74 "/>
   <path class="fil4" d="M492.92 1129.29l141.97 0c-1.36,-22.44 -24.63,-40.14 -49.48,-41.09 -29.78,-1.14 -61.89,-0.04 -91.93,-0.04l-0.55 41.14z"/>
   <path class="fil4" d="M227.45 1129.29l141.42 0.01 0.56 -41.14c-30.6,0 -62.71,-1.09 -92.49,0.04 -24.78,0.94 -48.22,18.7 -49.49,41.09z"/>
   <path class="fil5" d="M862.25 1129.29l0.75 -20.58c-18.9,0 -49.9,1.84 -67.25,-0.44 -28.82,-3.78 -27.18,-25.04 -36.94,-30.4 -20.69,0 -34.07,1.05 -38.78,19.04 -4.56,17.45 8.66,30.88 23.65,32.22 33.81,3.04 83.08,0.15 118.57,0.15z"/>
   <path class="fil5" d="M986.22 1108.71l0.26 20.59c37.52,-0.01 80.85,2.07 117.22,-0.05 15.8,-0.92 29.27,-13.33 25.71,-30.84 -3.78,-18.54 -18.14,-20.53 -39.11,-20.53 -8.87,4.86 -8.94,26.74 -36.94,30.4 -17.39,2.27 -48.34,0.44 -67.14,0.44z"/>
   <path class="fil3" d="M965.68 445.74c0,32.94 -8.16,43.67 25.63,54.93 10.94,3.65 27.18,-7.61 35.3,-13.71l0.73 -41.21c-0.05,-19.66 -8.29,-15.41 -45.09,-15.41 -12.9,0 -16.57,2.32 -16.57,15.41z"/>
   <path class="fil1" d="M472.3 445.74c0,32.94 -8.16,43.67 25.63,54.93 10.94,3.65 27.18,-7.61 35.3,-13.71l0.73 -41.21c-0.05,-19.62 -8.22,-15.41 -44.72,-15.41 -13.27,0 -16.94,2.32 -16.94,15.41z"/>
   <path class="fil4" d="M411.52 561.93l19.06 17.97 19.96 -18.27c-0.21,-18.39 -14.66,-141.84 -19.36,-151.01 -4.51,8.63 -19.19,133.1 -19.66,151.31z"/>
   <path class="fil5" d="M905.91 574.22l37.25 0.01c0.58,-12.7 -16.13,-159.83 -18.61,-163.95 -2.46,4.06 -19.21,151.32 -18.64,163.94z"/>
   <path class="fil6 str0" d="M381.63 265.87l99.08 0.01c-1.32,-21.72 -24.96,-41.05 -49.53,-41.05 -24.5,-0.01 -48.34,19.43 -49.55,41.05z"/>
   <path class="fil5" d="M875.02 265.87l99.08 0.01c-1.35,-21.72 -24.95,-41.05 -49.54,-41.05 -24.49,-0.01 -48.35,19.44 -49.54,41.05z"/>
   <path class="fil7" d="M986.22 1088.17c32.17,0 63.78,4.97 78.74,-8.38 -3.83,-2.46 -10.11,-2.51 -15.41,-5.14l-1.64 -27.61 -61.68 0 -0.01 41.13z"/>
   <path class="fil7" d="M801.2 1062.47l-1.45 12.19c-5.47,2.58 -11.83,2.7 -15.61,5.15 14.77,13.3 47.52,8.37 78.74,8.37l0.01 -41.13 -61.68 0 -0.01 15.43z"/>
   <polygon class="fil7" points="307.82,1060.54 308.31,1067.63 369.5,1067.62 369.64,1060.55 369.51,1047.04 307.83,1047.04 "/>
   <polygon class="fil7" points="492.84,1060.54 493.32,1067.63 553.8,1067.62 554.66,1060.55 554.53,1047.04 492.85,1047.04 "/>
   <path class="fil5" d="M907.17 370.04c16.3,26.69 18.5,26.64 34.22,0.54l-16.38 -17.73 -17.84 17.19z"/>
   <path class="fil4" d="M413.79 370.04c16.3,26.69 18.5,26.64 34.22,0.54l-16.38 -17.73 -17.84 17.19z"/>
   <path class="fil8" d="M986.21 468.87l0 3.86c5.09,9.69 12.16,7.78 20,2.64l0.68 -23.64 -7.15 -1.03 -13.53 0.17 0.01 18.01z"/>
   <path class="fil2" d="M492.83 468.87l0 3.86c5.09,9.69 12.16,7.78 20,2.64l0.68 -23.64 -7.15 -1.03 -13.51 0.17 -0.02 18.01z"/>
   <path class="fil8" d="M872.65 331.75l20.67 21.82 13.48 -12.9c-13.93,-8.14 -19.66,-13.92 -34.15,-8.92z"/>
   <path class="fil8" d="M379.2 331.66l20.74 21.9 13.47 -12.89c-6.04,-3.55 -11.16,-6.01 -16.82,-8.85 -9.03,-4.53 -7.9,-3.27 -17.39,-0.17z"/>
   <path class="fil8" d="M449.2 340.43l12.36 13.17 22.17 -21.35c-15.88,-5.51 -20.11,0.54 -34.53,8.17z"/>
   <path class="fil8" d="M942.58 340.43l12.36 13.17 22.21 -21.4c-15.7,-5.49 -20.4,0.75 -34.58,8.22z"/>
   <path class="fil3" d="M343.59 791.7c-10.95,6.32 -1.82,24.98 11.23,17.17 9.22,-5.53 2.24,-24.94 -11.23,-17.17z"/>
   <path class="fil3" d="M384.69 792.15c-3.35,2.08 -6.49,6.04 -3.98,12.34 2.11,5.27 8.3,8.07 14.78,4.61 10.02,-5.35 2.82,-25.38 -10.81,-16.94z"/>
   <path class="fil3" d="M422.16 805.72c18.93,14.79 23.58,-10.19 14.2,-14.2l-10.57 -0.74c-4.52,6.36 -5.72,4.37 -3.63,14.94z"/>
  </g>
 </g>
</svg>
