<?xml version="1.0" encoding="UTF-8"?>
<!DOCTYPE svg PUBLIC "-//W3C//DTD SVG 1.1//EN" "http://www.w3.org/Graphics/SVG/1.1/DTD/svg11.dtd">
<!-- Creator: CorelDRAW 2021 (64-Bit) -->
<svg xmlns="http://www.w3.org/2000/svg" xml:space="preserve" width="25.3999mm" height="25.4mm" version="1.1" style="shape-rendering:geometricPrecision; text-rendering:geometricPrecision; image-rendering:optimizeQuality; fill-rule:evenodd; clip-rule:evenodd"
viewBox="0 0 573.88 573.88"
 xmlns:xlink="http://www.w3.org/1999/xlink"
 xmlns:xodm="http://www.corel.com/coreldraw/odm/2003">
 <defs>
  <style type="text/css">
   <![CDATA[
    .fil0 {fill:none}
    .fil2 {fill:#001F54}
    .fil4 {fill:#1282A2}
    .fil1 {fill:#E0EFDE}
    .fil6 {fill:#E4C95C}
    .fil5 {fill:#FCFCFE}
    .fil3 {fill:#FF2E00}
   ]]>
  </style>
 </defs>
 <g id="Layer_x0020_1">
  <metadata id="CorelCorpID_0Corel-Layer"/>
  <g id="_2541420585072">
   <circle class="fil0" cx="286.94" cy="286.94" r="286.94"/>
   <path class="fil1" d="M398.44 409.07l-0.78 0.14c-0.04,-5.41 1.66,-16.96 -1.41,-20.74 -6.35,-2.17 -5.12,-5.8 -5.2,-13.39l-1.66 -121.58c-0.3,-19.93 -8.25,-29.26 -0.88,-64.86 6.14,-29.65 12.47,-33.1 18.95,-50.82 -2.62,-2.2 -36.61,-16.79 -40.67,-17.47 -1.85,4.33 -2.63,9.31 -4.46,13.85 -4.84,12.02 -13.51,23.52 -22.97,31.16 -47.9,38.69 -108.52,14.92 -126.79,-32.33 -1.66,-4.29 -2.6,-9.6 -4.16,-13.24l-40.59 16.29c3.95,10.3 9.2,19.23 13.12,31.08 8.03,24.28 11.07,50.42 5.49,75.77 -2.83,12.85 -1.95,27.57 -2.22,41.26 -1.13,57.29 -2.43,114.67 -3.06,171.99l210.96 0c-0.08,-9.27 -0.23,-18.54 -0.35,-27.81 -0.09,-7.21 -2.54,-20.39 6.68,-19.29z"/>
   <path class="fil2" d="M181.15 117.32c-0.83,0.07 -25.94,9.75 -28.45,12.85 -2.62,3.23 -3.77,4.49 -6.72,7.43l-54.52 57.04c-5.51,5.48 -12.09,8.6 -6.07,17.28 2.33,3.36 9.78,13.8 10.84,17.22 2.29,1.41 2,1.76 3.84,4.73l25.33 38.76c6.73,10.63 8.08,7.64 22.81,-0.44 6.11,-3.35 18.25,-10.89 24,-12.76l-3.55 182.49c0,6.28 -0.14,12.7 -0.06,18.95 0.1,7.28 3.74,8.27 10.84,8.31 12.44,0.07 24.92,-0.04 37.37,-0.04 3.33,-1.51 138.57,-1.09 140.43,0 12.29,0 25.74,0.53 37.88,0.02 6.62,-0.28 9.48,-1.89 9.98,-8.35 0.47,-6.15 -0.89,-11.28 -0.82,-18.31 -0.07,-6.38 -0.17,-12.77 -0.24,-19.15 -0.09,-8.25 1.4,-11.95 -5.6,-14.29 -9.22,-1.1 -6.77,12.08 -6.68,19.29 0.12,9.27 0.27,18.54 0.35,27.81l-210.96 0c0.63,-57.31 1.93,-114.69 3.06,-171.99 0.27,-13.69 -0.61,-28.41 2.22,-41.26 5.58,-25.35 2.54,-51.49 -5.49,-75.77 -3.92,-11.85 -9.16,-20.77 -13.12,-31.08l40.59 -16.29c1.56,3.64 2.5,8.95 4.16,13.24 18.27,47.25 78.89,71.02 126.79,32.33 9.46,-7.65 18.13,-19.14 22.97,-31.16 1.83,-4.54 2.61,-9.53 4.46,-13.85 4.06,0.69 38.04,15.27 40.67,17.47 -6.48,17.72 -12.81,21.17 -18.95,50.82 -7.37,35.6 0.58,44.93 0.88,64.86l1.66 121.58c0.08,7.59 -1.15,11.22 5.2,13.39 10.08,0.33 7.19,-10.73 6.97,-26.73l-0.92 -67.42c-0.12,-8.9 -1.26,-24.81 -0.16,-32.93l35.24 17.31c6.75,2.4 8.47,-2.12 10.98,-6.06 4.61,-7.24 9.51,-14.49 14.13,-21.67 2.06,-3.21 11.93,-19.89 15.04,-21.82l10.5 -16.74c6.57,-9.5 0.96,-10.06 -8.25,-21.08 -1.13,-1.34 -2.04,-2.14 -3.29,-3.37l-20.81 -21.64c-9.52,-9.52 -25.25,-27.44 -34.1,-35.83 -2.44,-2.32 -5.8,-3.34 -9.34,-4.82l-19.62 -8.37c-7.18,-2.13 -18.32,-7.59 -25.4,-10.73 -6.49,-2.88 -7.09,-1.91 -11.98,1.33 -18.75,12.41 -43.63,19.95 -68.35,19.53 -26.95,-0.46 -47.25,-9.03 -67.86,-20.84 -8.47,-4.85 -19.08,4.89 -37.86,10.72z"/>
   <path class="fil3" d="M396.25 388.47c3.07,3.78 1.37,15.32 1.41,20.74l0.78 -0.14c7,2.34 5.51,6.04 5.6,14.29 0.07,6.38 0.18,12.77 0.24,19.15 2.55,-0.69 2.96,-1.71 4.98,-3.32 1.67,-1.34 2.73,-2.18 4.64,-3.68l9.31 -8.18c11.68,-11.82 22.7,-24.08 31.36,-38.57 4.13,-6.92 9.51,-15.04 12.35,-22.84 -0.59,-0.49 -0.46,-0.65 -1.64,-1.17 -1.6,-0.7 0.34,0.01 -2.04,-0.58 2.83,-1.68 3.38,-0.9 5.69,-3.25l1.11 -0.83 0 -0.83 0.82 -1.67 0.87 -1.67 0 -0.83 8.29 -28.3c6.19,-26.22 6.02,-55.97 0.76,-82.35 -0.89,-4.46 -2.95,-11.09 -3.26,-15.29 -3.1,1.93 -12.98,18.61 -15.04,21.82 -4.61,7.18 -9.52,14.43 -14.13,21.67 -2.51,3.94 -4.23,8.46 -10.98,6.06l-35.24 -17.31c-1.1,8.12 0.04,24.04 0.16,32.93l0.92 67.42c0.22,16 3.11,27.06 -6.97,26.73z"/>
   <path class="fil3" d="M168.67 441.92l3.55 -182.49c-5.75,1.88 -17.89,9.41 -24,12.76 -14.73,8.08 -16.08,11.07 -22.81,0.44l-25.33 -38.76c-1.85,-2.97 -1.55,-3.31 -3.84,-4.73 -0.4,5.33 -4.57,17.85 -5.91,31.8 -2.14,22.31 -1.79,13.65 -0.76,35.05 2.4,49.75 24.34,94.65 58.49,128.83l20.61 17.11z"/>
   <path class="fil4" d="M97.37 206.91l37.99 57.88 35.99 -19.37c5.18,-3.48 5.52,-23.39 5.53,-29.35 0.05,-26.22 -8.8,-52.52 -19.23,-72.24l-15.18 15.24c-2.58,2.83 -4.6,5.01 -7.18,7.82l-7.97 7.83c-7.42,7.46 -9.53,10.78 -18.72,19.58l-11.24 12.61z"/>
   <path class="fil4" d="M438.7 265.15c9.93,-17.14 26.74,-40.07 37.7,-58.24 -1.99,-3.49 -15.94,-17.18 -21.42,-23.26l-22.02 -22.92c-3.42,-2.94 -11.54,-11.98 -14.2,-15.61 -1.71,1.26 -0.21,-0.17 -1.52,1.43 -0.26,0.31 -0.94,1.32 -1.08,1.56l-5.58 11.85c-2.41,5.38 -4.23,10.68 -6.11,16.37 -5.92,17.96 -9.53,50.96 -3.46,68.83 1.35,3.97 15.18,9.2 21.73,12.41 4.63,2.26 11.4,6.38 15.96,7.59z"/>
   <path class="fil2" d="M339.33 474.98l-104.89 0 -132.39 -0.03c-9.67,-0.09 -13.44,4.07 -10.04,10.06 2.34,4.12 13.93,2.45 20.06,2.45l352.98 0c6.17,0 16.66,1.75 18.67,-3.03 1.48,-3.51 0.42,-6.44 -1.77,-8.05 -3.88,-2.86 -47.37,-1.41 -54.37,-1.41 -29.41,0 -58.84,-0.1 -88.25,0.01z"/>
   <path class="fil3" d="M181.15 117.32c18.78,-5.83 29.4,-15.57 37.86,-10.72 20.61,11.81 40.91,20.38 67.86,20.84 24.72,0.42 49.6,-7.11 68.35,-19.53 4.89,-3.24 5.49,-4.2 11.98,-1.33 7.08,3.14 18.22,8.6 25.4,10.73 -3.98,-6.81 -40.12,-20.2 -46.31,-22.27 -35.73,-11.99 -83.11,-11.89 -118.85,-0.01 -9.44,3.14 -16.29,5.78 -24.64,9.49 -3.54,1.57 -19.64,9.34 -21.65,12.79z"/>
   <path class="fil5" d="M352.61 123.8c-22.84,8.63 -32.58,16.43 -64.9,15.74 -17.05,-0.36 -35.07,-4.19 -50.44,-10.4 -4.29,-1.74 -11.03,-5.23 -14.73,-6.21 3.61,14.04 14.93,28.04 22.57,34.19 47.23,38.04 101.74,-2.27 107.5,-33.32z"/>
   <path class="fil3" d="M250.57 278.03c1.3,2.8 15.74,16.23 18.11,17.82l-4.16 26.43c33.56,-15.36 13.57,-15 46.26,-0.01 0.18,-3.89 -2.46,-16.06 -3.34,-21.11 -0.69,-3.96 -1.24,-3.68 0.88,-6.18 4.55,-5.38 12.98,-10.42 16.67,-16.98l-25.69 -3.69c-1.88,-5.64 -5.55,-11.24 -8.14,-16.67l-3.44 -6.09c-4.2,5.36 -7.1,16.15 -10.72,21.27 -1.99,2.82 -5.9,2.32 -12.53,3.25 -4.55,0.63 -9.24,1.33 -13.9,1.97z"/>
   <path class="fil3" d="M234.43 474.99l104.89 -0 17.92 -5.84c-1.86,-1.09 -137.1,-1.51 -140.43,0l17.05 5.57c0.12,0.05 0.39,0.16 0.56,0.27z"/>
   <path class="fil3" d="M220.28 227.72c0,7.15 -1.46,18.17 8.05,15.68 5.6,-1.46 3.45,-6.41 4.75,-11.97 5.67,0 10.72,0.35 11.71,-4.95 1.65,-8.81 -9.29,-7.42 -16.19,-7.42 -6.94,0 -8.33,1.9 -8.33,8.66z"/>
   <path class="fil3" d="M295.43 342.49c-6.67,3.4 -5.1,11.14 3.09,11.65 4.14,0.26 18.73,0.65 21.53,-0.85 5.17,-2.77 4.37,-10.8 -3.19,-11.49 -4.09,-0.37 -18.64,-0.73 -21.44,0.69z"/>
   <path class="fil3" d="M224.5 290.75c-6.09,2.35 -4.2,10.43 -4.23,17.73 -0.02,5.99 -0.73,16.65 8.83,13.12 5.19,-1.91 3.5,-12.02 3.53,-18.12 0.03,-6.15 -0.14,-15.81 -8.13,-12.73z"/>
   <path class="fil3" d="M224.36 251.55c-5.88,2.24 -4.06,10.75 -4.08,17.8 -0.02,6.8 -0.43,16.54 8.78,13.04 5.11,-1.94 3.56,-11.71 3.58,-18.04 0.02,-6.3 -0.08,-15.92 -8.28,-12.8z"/>
   <path class="fil3" d="M300.2 231.44c11.47,0 23.15,2.16 23.11,-6.21 -0.04,-8.31 -11.68,-6.16 -23.11,-6.16 -11.89,0 -12.04,12.37 0,12.37z"/>
   <path class="fil3" d="M346.98 251.7c-5.87,2.83 -3.98,10.3 -4.01,17.65 -0.01,3.28 -1.37,16.64 8.5,13.11 5.49,-1.96 3.83,-12.39 3.86,-18.11 0.03,-6.23 -0.15,-16.6 -8.36,-12.65z"/>
   <path class="fil3" d="M347.11 290.9c-5.8,2.82 -4.1,7.13 -4.13,17.58 -0.02,6.55 -0.44,16.36 8.56,13.18 5.45,-1.93 3.77,-12.56 3.8,-18.18 0.03,-6.11 -0.23,-16.47 -8.23,-12.58z"/>
   <path class="fil3" d="M261.07 231.44c11.26,0 23.09,2.14 23.03,-6.2 -0.05,-8.29 -11.87,-6.17 -23.03,-6.17 -11.95,0 -12.11,12.37 0,12.37z"/>
   <path class="fil3" d="M252.75 344.76c-1.54,10.28 4.19,9.43 12.48,9.39 6.56,-0.03 16.07,1.69 18.4,-4.02 3.22,-7.85 -5.87,-8.41 -11.73,-8.38 -8.98,0.06 -12.79,-1.6 -19.15,3z"/>
   <path class="fil6" d="M102.06 112c10.93,0.24 17.24,6.55 17.48,17.48 2.28,-1.67 1.62,-2.39 2.6,-5.73 2.17,-7.42 6.65,-11 15.72,-11.75l0 -1.67c-10.19,-0.23 -16.42,-6.46 -16.65,-16.65l-1.67 0c-0.44,5.24 -2.07,9.44 -5.15,12.33 -5.2,4.88 -9.74,2.45 -12.33,5.98z"/>
   <path class="fil6" d="M98.73 425.03c2.03,2.77 3.53,1.18 6.69,3.31 2.15,1.45 3.23,3.95 3.31,7.52l1.67 0c0.23,-10.23 7.4,-7.29 9.99,-10.82 -6.37,-0.14 -9.49,-3.16 -9.99,-9.16l-1.67 0c-0.5,6 -3.62,9.01 -9.99,9.16z"/>
   <path class="fil6" d="M452.55 110.34c2.41,3.29 3.13,0.39 6.45,3.54 1.66,1.57 2.64,4.24 2.7,7.28 4.12,-3.01 -0.82,-7.28 10.82,-9.99l-3.45 -1.54c-7.36,-2.75 -3.28,-5.45 -7.37,-8.45 -0.48,5.8 -3.36,8.68 -9.16,9.16z"/>
   <path class="fil6" d="M471.73 355.09l0 0.83 -0.87 1.67 -0.82 1.67 0 0.83c-0.02,1.22 0.25,0.83 -1.11,0.83 -2.31,2.35 -2.86,1.57 -5.69,3.25 2.39,0.59 0.45,-0.12 2.04,0.58 1.18,0.52 1.05,0.68 1.64,1.17 5.49,1.69 3.1,5.88 6.43,8.33 0.23,-10.56 6.55,-7.26 9.16,-10.82 -5.8,-0.48 -8.68,-3.36 -9.16,-9.16l-1.63 0.83z"/>
   <path class="fil6" d="M114.09 312.64c6.85,3.97 2.37,0.8 6.29,6.23 3.4,-6.56 0.11,-2.77 6.21,-6.23 -4.86,-3.24 -2.72,-0.3 -6.21,-5.51l-1.18 1.75c-2.51,3.37 -2.11,1.72 -5.11,3.76z"/>
   <path class="fil6" d="M342.98 231.44c0,0 0,0 0,0z"/>
   <path class="fil6" d="M232.63 341.78c0,0 0,0 0,0z"/>
   <path class="fil6" d="M342.98 341.78c0,0 0,0 0,0z"/>
  </g>
 </g>
</svg>
