<?xml version="1.0" encoding="UTF-8"?>
<!DOCTYPE svg PUBLIC "-//W3C//DTD SVG 1.1//EN" "http://www.w3.org/Graphics/SVG/1.1/DTD/svg11.dtd">
<!-- Creator: CorelDRAW 2021 (64-Bit) -->
<svg xmlns="http://www.w3.org/2000/svg" xml:space="preserve" width="25.3998mm" height="25.4mm" version="1.1" style="shape-rendering:geometricPrecision; text-rendering:geometricPrecision; image-rendering:optimizeQuality; fill-rule:evenodd; clip-rule:evenodd"
viewBox="0 0 4311.81 4311.84"
 xmlns:xlink="http://www.w3.org/1999/xlink"
 xmlns:xodm="http://www.corel.com/coreldraw/odm/2003">
 <defs>
  <style type="text/css">
   <![CDATA[
    .fil0 {fill:none}
    .fil1 {fill:#1282A2}
    .fil2 {fill:#E0EFDE}
    .fil4 {fill:#E4C95C}
    .fil3 {fill:#E0EFDE;fill-opacity:0.501961}
   ]]>
  </style>
 </defs>
 <g id="Layer_x0020_1">
  <metadata id="CorelCorpID_0Corel-Layer"/>
  <g id="_2542207957184">
   <ellipse class="fil0" cx="2155.91" cy="2155.92" rx="2155.92" ry="2155.91"/>
   <rect class="fil1" x="976.9" y="646.77" width="2358.04" height="3018.28"/>
   <rect class="fil2" x="1561.63" y="868.24" width="1188.58" height="53.11"/>
   <rect class="fil2" x="1361.62" y="1001.02" width="1588.59" height="53.11"/>
   <rect class="fil2" x="1361.62" y="1133.79" width="1588.59" height="53.11"/>
   <rect class="fil2" x="1561.63" y="3005.39" width="1188.58" height="53.11"/>
   <rect class="fil2" x="1361.62" y="3138.17" width="1588.59" height="53.11"/>
   <rect class="fil2" x="1361.62" y="3270.94" width="1588.59" height="53.11"/>
   <polygon class="fil2" points="2377.17,2107.1 2155.92,2107.1 1934.66,2107.1 1866.3,1896.68 1797.92,1686.25 1976.91,1556.2 2155.92,1426.17 2334.91,1556.2 2513.91,1686.25 2445.54,1896.68 "/>
   <polygon class="fil3" points="1572.65,2440.45 2739.17,2440.45 2739.17,2870.23 1572.65,2870.23 "/>
   <rect class="fil4" x="3122.49" y="646.78" width="212.44" height="53.11"/>
   <rect class="fil4" transform="matrix(2.22833E-15 -0.0841369 0.328688 8.70516E-15 3281.82 859.224)" width="2524.97" height="161.59"/>
   <rect class="fil4" x="3122.49" y="3611.95" width="212.44" height="53.11"/>
   <rect class="fil4" transform="matrix(2.22833E-15 -0.0841369 0.328688 8.70516E-15 3281.82 3665.06)" width="2524.97" height="161.59"/>
  </g>
 </g>
</svg>
