<?xml version="1.0" encoding="UTF-8"?>
<!DOCTYPE svg PUBLIC "-//W3C//DTD SVG 1.1//EN" "http://www.w3.org/Graphics/SVG/1.1/DTD/svg11.dtd">
<!-- Creator: CorelDRAW 2021 (64-Bit) -->
<svg xmlns="http://www.w3.org/2000/svg" xml:space="preserve" width="13.8906mm" height="17.78mm" version="1.1" style="shape-rendering:geometricPrecision; text-rendering:geometricPrecision; image-rendering:optimizeQuality; fill-rule:evenodd; clip-rule:evenodd"
viewBox="0 0 199.83 255.78"
 xmlns:xlink="http://www.w3.org/1999/xlink"
 xmlns:xodm="http://www.corel.com/coreldraw/odm/2003">
 <defs>
  <style type="text/css">
   <![CDATA[
    .fil0 {fill:#1282A2}
    .fil1 {fill:#E0EFDE}
    .fil3 {fill:#E4C95C}
    .fil2 {fill:#E0EFDE;fill-opacity:0.501961}
   ]]>
  </style>
 </defs>
 <g id="Layer_x0020_1">
  <metadata id="CorelCorpID_0Corel-Layer"/>
  <g id="_2865183302448">
   <rect class="fil0" x="-0" y="-0" width="199.83" height="255.78"/>
   <rect class="fil1" x="49.55" y="18.77" width="100.73" height="4.5"/>
   <rect class="fil1" x="32.6" y="30.02" width="134.62" height="4.5"/>
   <rect class="fil1" x="32.6" y="41.27" width="134.62" height="4.5"/>
   <rect class="fil1" x="49.55" y="199.88" width="100.73" height="4.5"/>
   <rect class="fil1" x="32.6" y="211.13" width="134.62" height="4.5"/>
   <rect class="fil1" x="32.6" y="222.38" width="134.62" height="4.5"/>
   <polygon class="fil1" points="118.66,123.75 99.91,123.75 81.16,123.75 75.37,105.92 69.58,88.09 84.74,77.07 99.91,66.05 115.08,77.07 130.25,88.09 124.46,105.92 "/>
   <polygon class="fil2" points="50.49,152 149.34,152 149.34,188.42 50.49,188.42 "/>
   <rect class="fil3" x="181.83" y="0" width="18" height="4.5"/>
   <rect class="fil3" transform="matrix(2.22833E-15 -0.0841369 0.328688 8.70516E-15 195.328 18.0037)" width="213.98" height="13.69"/>
   <rect class="fil3" x="181.83" y="251.28" width="18" height="4.5"/>
   <rect class="fil3" transform="matrix(2.22833E-15 -0.0841369 0.328688 8.70516E-15 195.328 255.782)" width="213.98" height="13.69"/>
  </g>
 </g>
</svg>
