<?xml version="1.0" encoding="UTF-8"?>
<!DOCTYPE svg PUBLIC "-//W3C//DTD SVG 1.1//EN" "http://www.w3.org/Graphics/SVG/1.1/DTD/svg11.dtd">
<!-- Creator: CorelDRAW 2021 (64-Bit) -->
<svg xmlns="http://www.w3.org/2000/svg" xml:space="preserve" width="18.053mm" height="17.78mm" version="1.1" style="shape-rendering:geometricPrecision; text-rendering:geometricPrecision; image-rendering:optimizeQuality; fill-rule:evenodd; clip-rule:evenodd"
viewBox="0 0 8827.96 8694.47"
 xmlns:xlink="http://www.w3.org/1999/xlink"
 xmlns:xodm="http://www.corel.com/coreldraw/odm/2003">
 <defs>
  <style type="text/css">
   <![CDATA[
    .fil1 {fill:#001F54}
    .fil3 {fill:#1282A2}
    .fil0 {fill:#E0EFDE}
    .fil5 {fill:#E4C95C}
    .fil4 {fill:#FCFCFE}
    .fil2 {fill:#FF2E00}
   ]]>
  </style>
 </defs>
 <g id="Layer_x0020_1">
  <metadata id="CorelCorpID_0Corel-Layer"/>
  <g id="_2865181013552">
   <path class="fil0" d="M6827.21 6990.49l-16.97 2.93c-0.83,-117.17 35.94,-367.09 -30.42,-448.81 -137.36,-47.04 -110.86,-125.43 -112.57,-289.78l-35.84 -2631.47c-6.55,-431.35 -178.58,-633.36 -19.02,-1403.78 132.96,-641.72 269.93,-716.49 410.22,-1099.96 -56.77,-47.63 -792.28,-363.33 -880.16,-378.19 -39.95,93.64 -56.87,201.57 -96.43,299.81 -104.79,260.15 -292.33,508.95 -497.17,674.43 -1036.64,837.37 -2348.83,322.89 -2744.19,-699.76 -35.89,-92.86 -56.24,-207.78 -90.03,-286.51l-878.49 352.52c85.58,223.03 199.12,416.19 283.91,672.67 173.69,525.43 239.51,1091.21 118.73,1639.87 -61.22,278.1 -42.3,596.73 -48.12,892.92 -24.45,1240.01 -52.67,2481.93 -66.26,3722.34l4565.77 0c-1.76,-200.59 -5.04,-401.23 -7.58,-601.82 -1.96,-156.04 -55.01,-441.28 144.6,-417.41z"/>
   <path class="fil1" d="M2124.42 676.05c-18,1.42 -561.38,211.05 -615.85,278.14 -56.77,69.93 -81.61,97.12 -145.43,160.88l-1179.91 1234.54c-119.22,118.58 -261.71,186.11 -131.4,374.09 50.37,72.67 211.69,298.68 234.72,372.72 49.58,30.61 43.23,38.04 83.18,102.35l548.22 838.93c145.67,229.98 174.92,165.43 493.7,-9.54 132.23,-72.57 394.92,-235.6 519.37,-276.24l-76.87 3949.67c0,135.89 -3.13,274.87 -1.22,410.22 2.25,157.56 80.88,178.97 234.57,179.86 269.2,1.47 539.42,-0.88 808.76,-0.88 72.18,-32.71 2999.05,-23.62 3039.4,0 265.97,0 557.02,11.39 819.81,0.39 143.18,-5.97 205.28,-40.88 215.89,-180.69 10.12,-133.16 -19.17,-244.16 -17.65,-396.29 -1.47,-138.14 -3.72,-276.29 -5.28,-414.43 -2,-178.63 30.37,-258.63 -121.22,-309.29 -199.61,-23.86 -146.55,261.37 -144.6,417.41 2.54,200.59 5.82,401.23 7.58,601.82l-4565.77 0c13.59,-1240.4 41.81,-2482.32 66.26,-3722.34 5.82,-296.19 -13.11,-614.82 48.12,-892.92 120.78,-548.66 54.96,-1114.44 -118.73,-1639.87 -84.79,-256.48 -198.34,-449.64 -283.91,-672.67l878.49 -352.52c33.79,78.73 54.13,193.65 90.03,286.51 395.36,1022.65 1707.55,1537.13 2744.19,699.76 204.84,-165.48 392.38,-414.28 497.17,-674.43 39.56,-98.24 56.48,-206.16 96.43,-299.81 87.87,14.87 823.38,330.57 880.16,378.19 -140.29,383.48 -277.26,458.24 -410.22,1099.96 -159.56,770.42 12.47,972.43 19.02,1403.78l35.84 2631.47c1.71,164.35 -24.79,242.74 112.57,289.78 218.19,7.19 155.6,-232.13 150.86,-578.44l-19.95 -1459.18c-2.59,-192.52 -27.29,-536.97 -3.52,-712.72l762.8 374.72c146.02,51.93 183.38,-45.92 237.61,-131.15 99.71,-156.73 205.92,-313.65 305.77,-469.1 44.65,-69.39 258.29,-430.57 325.48,-472.28l227.29 -362.2c142.15,-205.63 20.73,-217.75 -178.53,-456.19 -24.35,-29.1 -44.25,-46.21 -71.25,-72.91l-450.47 -468.46c-206.11,-206.07 -546.41,-593.99 -738.1,-775.41 -52.91,-50.12 -125.62,-72.27 -202.06,-104.26l-424.75 -181.13c-155.5,-46.16 -396.58,-164.26 -549.79,-232.23 -140.44,-62.25 -153.5,-41.27 -259.27,28.75 -405.82,268.66 -944.26,431.84 -1479.23,422.64 -583.23,-10.02 -1022.65,-195.45 -1468.77,-451.06 -183.23,-104.99 -413.01,105.82 -819.52,232.03z"/>
   <path class="fil2" d="M6779.83 6544.62c66.36,81.71 29.58,331.64 30.42,448.81l16.97 -2.93c151.59,50.66 119.22,130.66 121.22,309.29 1.56,138.14 3.81,276.29 5.28,414.43 55.26,-14.91 64.06,-37.07 107.78,-71.93 36.24,-28.9 59.12,-47.24 100.44,-79.71l201.42 -177.02c252.86,-255.75 491.35,-521.08 678.83,-834.68 89.49,-149.78 205.92,-325.53 267.39,-494.33 -12.76,-10.51 -9.93,-14.03 -35.45,-25.23 -34.52,-15.06 7.43,0.15 -44.25,-12.52 61.22,-36.43 73.11,-19.41 123.13,-70.32l24.06 -18.04 0 -18 17.65 -36.04 18.73 -36.04 0 -18.04 179.51 -612.57c134.04,-567.49 130.32,-1211.36 16.48,-1782.32 -19.22,-96.43 -63.81,-239.95 -70.56,-330.96 -67.19,41.71 -280.83,402.89 -325.48,472.28 -99.85,155.45 -206.07,312.37 -305.77,469.1 -54.23,85.23 -91.59,183.08 -237.61,131.15l-762.8 -374.72c-23.77,175.75 0.93,520.2 3.52,712.72l19.95 1459.18c4.74,346.31 67.34,585.63 -150.86,578.44z"/>
   <path class="fil2" d="M1854.15 7701.6l76.87 -3949.67c-124.45,40.64 -387.14,203.67 -519.37,276.24 -318.78,174.97 -348.02,239.51 -493.7,9.54l-548.22 -838.93c-39.95,-64.3 -33.59,-71.74 -83.18,-102.35 -8.56,115.36 -98.93,386.31 -127.83,688.17 -46.21,482.79 -38.73,295.41 -16.38,758.49 52.03,1076.73 526.75,2048.63 1265.83,2788.29l445.97 370.22z"/>
   <path class="fil3" d="M311.1 2615.09l822.31 1252.68 779.03 -419.12c112.03,-75.31 119.46,-506.26 119.71,-635.31 1.12,-567.59 -190.52,-1136.64 -416.14,-1563.49l-328.56 329.93c-55.94,61.17 -99.51,108.41 -155.31,169.34l-172.47 169.39c-160.59,161.37 -206.26,233.25 -405.19,423.72l-243.38 272.86z"/>
   <path class="fil3" d="M7698.66 3875.64c214.92,-371.01 578.69,-867.15 815.9,-1260.55 -43.13,-75.55 -344.89,-371.89 -463.53,-503.33l-476.53 -496.14c-73.94,-63.72 -249.83,-259.37 -307.39,-337.95 -36.92,27.19 -4.45,-3.67 -32.96,30.86 -5.53,6.75 -20.24,28.61 -23.33,33.79l-120.83 256.43c-52.13,116.48 -91.59,231.05 -132.23,354.33 -128.12,388.76 -206.31,1103.04 -74.87,1489.75 29.19,85.97 328.56,199.22 470.37,268.56 100.2,49 246.65,138.09 345.38,164.26z"/>
   <path class="fil1" d="M5547.83 8417.1l-2270.24 0.1 -2865.41 -0.73c-209.2,-1.96 -290.96,88.07 -217.36,217.75 50.61,89.1 301.52,53.01 434.09,53.01l7639.69 0c133.6,0 360.64,37.85 404.11,-65.53 31.93,-75.94 9,-139.32 -38.24,-174.18 -83.96,-61.96 -1025.29,-30.56 -1176.69,-30.56 -636.53,0 -1273.46,-2.2 -1909.95,0.15z"/>
   <path class="fil2" d="M2124.42 676.05c406.51,-126.21 636.29,-337.02 819.52,-232.03 446.12,255.6 885.53,441.03 1468.77,451.06 534.97,9.19 1073.41,-153.99 1479.23,-422.64 105.77,-70.03 118.83,-91 259.27,-28.75 153.2,67.97 394.28,186.07 549.79,232.23 -86.11,-147.29 -868.42,-437.17 -1002.21,-482.06 -773.26,-259.42 -1798.85,-257.41 -2572.35,-0.15 -204.21,67.87 -352.57,125.04 -533.36,205.43 -76.63,34.03 -425.09,202.06 -468.66,276.92z"/>
   <path class="fil4" d="M5835.27 816.29c-494.28,186.8 -705.04,355.5 -1404.61,340.74 -369.05,-7.78 -758.93,-90.66 -1091.6,-225.14 -92.86,-37.56 -238.78,-113.2 -318.88,-134.48 78.09,303.82 323.13,606.85 488.51,740.06 1022.26,823.24 2202.08,-49.19 2326.58,-721.18z"/>
   <path class="fil2" d="M3626.74 4154.32c28.22,60.59 340.74,351.35 391.98,385.73l-90.03 572.04c726.27,-332.52 293.79,-324.55 1001.23,-0.15 3.91,-84.16 -53.3,-347.58 -72.37,-456.97 -14.91,-85.67 -26.75,-79.61 19.02,-133.79 98.49,-116.43 280.93,-225.43 360.79,-367.58l-556 -79.95c-40.64,-122.06 -120.05,-243.38 -176.24,-360.84l-74.43 -131.88c-90.95,116.04 -153.69,349.49 -232.08,460.35 -43.08,60.93 -127.68,50.32 -271.15,70.32 -98.44,13.74 -199.9,28.8 -300.74,42.74z"/>
   <path class="fil2" d="M3277.59 8417.2l2270.24 -0.1 387.83 -126.31c-40.34,-23.62 -2967.22,-32.71 -3039.4,0l369.1 120.54c2.69,1.17 8.41,3.42 12.23,5.87z"/>
   <path class="fil2" d="M2971.13 3065.56c0,154.67 -31.49,393.16 174.33,339.37 121.17,-31.69 74.57,-138.83 102.84,-258.98 122.74,0 232.03,7.53 253.55,-107.24 35.7,-190.76 -201.13,-160.49 -350.42,-160.49 -150.27,0 -180.3,41.08 -180.3,187.34z"/>
   <path class="fil2" d="M4597.7 5549.54c-144.45,73.59 -110.37,241.18 66.9,252.13 89.54,5.57 405.48,13.99 466.07,-18.44 111.88,-59.85 94.48,-233.79 -68.95,-248.66 -88.51,-8.07 -403.52,-15.89 -464.01,14.96z"/>
   <path class="fil2" d="M3062.67 4429.68c-131.79,50.81 -91,225.72 -91.59,383.67 -0.49,129.63 -15.89,360.3 191.2,283.91 112.28,-41.42 75.8,-260.05 76.38,-392.13 0.59,-133.11 -3.03,-342.16 -175.99,-275.46z"/>
   <path class="fil2" d="M3059.49 3581.26c-127.29,48.51 -87.87,232.77 -88.41,385.24 -0.54,147.24 -9.34,358.05 190.03,282.25 110.51,-42.05 76.97,-253.4 77.56,-390.47 0.54,-136.33 -1.66,-344.65 -179.17,-277.02z"/>
   <path class="fil2" d="M4700.98 3145.95c248.32,0 501.08,46.85 500.2,-134.33 -0.83,-179.81 -252.86,-133.4 -500.2,-133.4 -257.31,0 -260.54,267.73 0,267.73z"/>
   <path class="fil2" d="M5713.51 3584.54c-126.99,61.17 -86.21,222.94 -86.75,382.01 -0.2,71 -29.63,360.05 184.06,283.72 118.88,-42.49 82.98,-268.07 83.57,-391.94 0.59,-134.87 -3.33,-359.32 -180.88,-273.79z"/>
   <path class="fil2" d="M5716.29 4432.96c-125.43,61.13 -88.8,154.38 -89.49,380.44 -0.44,141.86 -9.58,354.14 185.28,285.28 118,-41.71 81.66,-271.89 82.3,-393.5 0.64,-132.32 -4.94,-356.53 -178.09,-272.23z"/>
   <path class="fil2" d="M3854.12 3145.95c243.77,0 499.66,46.31 498.54,-134.28 -1.08,-179.51 -256.87,-133.45 -498.54,-133.45 -258.68,0 -262.11,267.73 0,267.73z"/>
   <path class="fil2" d="M3674.07 5598.74c-33.35,222.4 90.61,204.16 270.08,203.28 141.96,-0.64 347.73,36.53 398.29,-86.94 69.63,-169.98 -127.09,-182.01 -253.89,-181.27 -194.43,1.22 -276.73,-34.62 -414.48,64.94z"/>
   <path class="fil5" d="M412.67 561.03c236.53,5.28 373.11,141.86 378.39,378.39 49.39,-36.24 35.06,-51.83 56.19,-124.01 46.99,-160.49 143.96,-238.05 340.2,-254.38l0 -36.04c-220.54,-4.89 -355.46,-139.85 -360.35,-360.35l-36.04 0c-9.44,113.35 -44.69,204.31 -111.49,266.9 -112.62,105.58 -210.86,53.06 -266.9,129.49z"/>
   <path class="fil5" d="M340.59 7335.87c44.01,60 76.33,25.57 144.7,71.54 46.5,31.3 69.83,85.58 71.54,162.69l36.04 0c4.94,-221.42 160.2,-157.8 216.19,-234.23 -137.9,-3.08 -205.38,-68.31 -216.19,-198.19l-36.04 0c-10.81,129.88 -78.34,195.11 -216.24,198.19z"/>
   <path class="fil5" d="M7998.32 524.99c52.23,71.3 67.73,8.46 139.66,76.58 35.84,33.94 57.07,91.74 58.53,157.65 89.1,-65.23 -17.7,-157.51 234.23,-216.19l-74.72 -33.4c-159.32,-59.56 -71,-118 -159.51,-182.84 -10.42,125.43 -72.76,187.78 -198.19,198.19z"/>
   <path class="fil5" d="M8413.44 5822.31l0 18.04 -18.73 36.04 -17.65 36.04 0 18c-0.54,26.31 5.38,18.04 -24.06,18.04 -50.02,50.91 -61.91,33.89 -123.13,70.32 51.69,12.67 9.73,-2.54 44.25,12.52 25.53,11.2 22.69,14.72 35.45,25.23 118.73,36.68 66.99,127.29 139.22,180.2 5.09,-228.51 141.66,-157.12 198.19,-234.23 -125.43,-10.42 -187.78,-72.76 -198.19,-198.19l-35.35 18z"/>
   <path class="fil5" d="M672.92 4903.43c148.36,85.87 51.25,17.21 136.14,134.87 73.5,-141.96 2.35,-59.9 134.43,-134.87 -105.18,-70.17 -58.88,-6.5 -134.43,-119.27l-25.53 37.85c-54.43,72.86 -45.72,37.26 -110.61,81.42z"/>
   <path class="fil5" d="M5626.86 3146.05c0,0 0,0 0,0z"/>
   <path class="fil5" d="M3238.57 5534.04c0,0 0,0 0,0z"/>
   <path class="fil5" d="M5626.86 5534.04c0,0 0,0 0,0z"/>
  </g>
 </g>
</svg>
