<?xml version="1.0" encoding="UTF-8"?>
<!DOCTYPE svg PUBLIC "-//W3C//DTD SVG 1.1//EN" "http://www.w3.org/Graphics/SVG/1.1/DTD/svg11.dtd">
<!-- Creator: CorelDRAW 2021 (64-Bit) -->
<svg xmlns="http://www.w3.org/2000/svg" xml:space="preserve" width="17.808mm" height="17.78mm" version="1.1" style="shape-rendering:geometricPrecision; text-rendering:geometricPrecision; image-rendering:optimizeQuality; fill-rule:evenodd; clip-rule:evenodd"
viewBox="0 0 622.92 621.94"
 xmlns:xlink="http://www.w3.org/1999/xlink"
 xmlns:xodm="http://www.corel.com/coreldraw/odm/2003">
 <defs>
  <style type="text/css">
   <![CDATA[
    .str0 {stroke:#FF2E00;stroke-width:2.67;stroke-miterlimit:22.9256}
    .fil2 {fill:black}
    .fil0 {fill:#001F54}
    .fil4 {fill:#1282A2}
    .fil7 {fill:#D0D0D0}
    .fil1 {fill:#E0EFDE}
    .fil6 {fill:#EFEFEF}
    .fil5 {fill:#F46533}
    .fil3 {fill:#FF2E00}
   ]]>
  </style>
 </defs>
 <g id="Layer_x0020_1">
  <metadata id="CorelCorpID_0Corel-Layer"/>
  <g id="_2900959876144">
   <path class="fil0" d="M326.74 75.54c-4.85,10.1 -2.53,56.85 -2.53,70.75 0,6.11 4,10.11 10.11,10.11l44.22 0 0 179.4c0,5.9 2.95,8.85 8.84,8.85l171.82 0c5.9,0 8.85,-2.95 8.85,-8.85l0 -179.4 44.21 0c6.11,0 10.11,-3.99 10.11,-10.11 0,-13.9 2.32,-60.65 -2.53,-70.75 -15.55,-3.62 -69.77,-0.67 -93.55,-1.2 -11.07,-0.25 -16.95,-6.38 -26.47,-6.38 -5.67,0 -21.41,11.37 -26.53,11.37 -5.66,0 -18.36,-11.37 -27.8,-11.37 -4.9,0 -14.39,6.12 -25.21,6.37 -23.82,0.56 -77.94,-2.43 -93.55,1.21z"/>
   <path class="fil1" d="M257.45 80.59l-13.04 0c-2.07,10.64 -13.13,7.72 -32.65,7.56 -10.2,-0.09 -10.66,-1.51 -16.08,4.14l-20.08 20.37c-11.15,13.59 -12.23,16.91 -10.82,27.36l11 87.57c1.22,8.93 2.01,11.06 -2.94,16.21 -18.53,19.27 -21.24,24.81 -32.61,13.18 -9.44,-9.66 -17.48,-14.26 -17.02,-23.5 0.53,-10.79 3.16,-25.04 4.56,-36.19 1.54,-12.19 10.48,-62.25 6.67,-69.64 -4.39,-8.52 -12.49,-17.43 -17.78,-22.71 -10.16,-10.14 -13.52,-16.66 -22.28,-16.89 -19.29,-0.51 -61.83,-1.86 -79.3,0.52l0.3 53.21c11.32,1.13 43.76,-2.62 51.1,1.87 5.38,6.56 2.52,35.44 2.52,45.57l0.01 141.5 161.72 0 0 -142.77c0,-9.96 -2.8,-37.84 2.52,-44.32 7.33,-4.47 39.8,-0.73 51.35,-1.86l0.04 -53.47 -13.49 -0.17c0,7.33 3.29,33.79 -10.48,25.81 -6.07,-3.52 -2.68,-25.02 -3.21,-33.38z"/>
   <path class="fil1" d="M338.56 141.81c9.48,0.92 21.59,0.28 31.14,0.28 12.8,-0.01 22.73,-3.95 22.73,10.53l0 178.14 161.4 0 0.32 -178.14c0.02,-18.83 19.3,-7.37 53.63,-10.8l0.29 -53.21 -13.5 -0.42 0 16.43c0,14.59 -13.47,14.77 -13.47,0l0 -16.43 -54.12 0c-6.69,0 -11.38,7.71 -15.41,11.76 -28.63,28.83 -24.99,27 -21.34,59.62l8.73 78.52c2.57,21.89 4.51,18.55 -42.09,18.55 -15.62,0 -9.84,-13.32 -8.35,-26.65l7.83 -70.41c1.16,-10.35 5.37,-25.97 0.52,-33.45 -10.37,-16.01 -14.99,-19.1 -26.89,-31.26 -4.73,-4.83 -4.16,-6.73 -13.45,-6.77 -20.75,-0.09 -59.22,-2.05 -78.01,0.51l0.03 53.21z"/>
   <path class="fil2" d="M367.16 526.56l212.25 0c10.02,0 9.03,-7.32 7.62,-15.16l-11.52 -65.59c-2.89,-14.46 -12.49,-79.32 -16.31,-87.29 -13.76,-3.2 -140.77,-1.26 -165.5,-1.26 -9.38,0 -8.84,8.59 -10.12,16.42l-23.66 135.54c-1.56,8.59 -3.33,17.34 7.24,17.34z"/>
   <path class="fil2" d="M48.79 522.77c2.6,1.74 3.28,3.79 6.32,3.79l79.59 0c10.66,0 9.28,-11.19 10.64,-20.94 1.3,-9.32 3.26,-18.72 3.26,-28.33l2.53 0c0,9.61 1.96,19 3.26,28.33 1.36,9.75 -0.02,20.94 10.64,20.94l79.59 0c3.04,0 3.71,-2.05 6.31,-3.79 0,-15.95 -1.35,-28.06 -1.26,-42.96l-3.79 -87.17c0.06,-9.25 -1.31,-13.2 -1.26,-21.48 0.06,-8.55 -0.47,-13.89 -8.85,-13.89l-171.82 0c-7.79,0 -8.92,4.59 -8.89,12.59 0.04,8.92 -1.29,12.34 -1.23,21.5 0.06,8.98 -0.59,14.47 -1.18,21.56l-1.3 44.18c0.04,8.81 -1.37,12.27 -1.31,21.43 0.1,15.52 -1.25,27.82 -1.25,44.24z"/>
   <path class="fil0" d="M257.45 80.59c0.54,8.36 -2.86,29.86 3.21,33.38 13.77,7.99 10.48,-18.48 10.48,-25.81l13.49 0.17 -0.04 53.47c-11.55,1.13 -44.02,-2.61 -51.35,1.86 -5.32,6.47 -2.52,34.36 -2.52,44.32l0 142.77 -161.72 0 -0.01 -141.5c0,-10.13 2.86,-39.01 -2.52,-45.57 -7.34,-4.48 -39.78,-0.74 -51.1,-1.87l-0.3 -53.21c17.47,-2.38 60,-1.03 79.3,-0.52 8.76,0.23 12.12,6.75 22.28,16.89 5.28,5.27 13.38,14.18 17.78,22.71 3.81,7.39 -5.13,57.45 -6.67,69.64 -1.4,11.16 -4.03,25.4 -4.56,36.19 -0.46,9.24 7.58,13.84 17.02,23.5 11.37,11.63 14.08,6.09 32.61,-13.18 4.96,-5.16 4.16,-7.28 2.94,-16.21l-11 -87.57c-1.42,-10.45 -0.34,-13.78 10.82,-27.36l20.08 -20.37c5.43,-5.65 5.88,-4.23 16.08,-4.14 19.53,0.16 30.58,3.08 32.65,-7.56 -2.33,-5.38 -3.07,-6.29 -11.08,-6.4 -23.52,-0.34 -27.84,2.53 -48.53,-4.54 -11.68,-4 -11.7,-0.63 -26.07,5.92 -4.57,2.08 -7.01,4.88 -12.65,2.62 -3.3,-1.32 -8.09,-4.14 -11.8,-6.03 -13.98,-7.13 -12.42,-4.05 -26.81,0.15 -19.64,5.74 -80.27,-2.34 -104.16,3.22 -5.5,11.46 -2.46,48.63 -2.58,65.75 -0.14,20.38 10.17,15.11 54.38,15.11l-0.08 176.96c0.21,14.83 9.43,11.29 24.09,11.29l141.5 0c14.66,0 23.88,3.54 24.09,-11.29l-0.08 -176.96c11.37,0 22.74,-0.05 34.11,0 14.38,0.06 20.27,1.29 20.28,-13.83 0.01,-17.11 2.85,-55.67 -2.6,-67.03 -7.2,-1.68 -12.72,-1.22 -21.49,-1.27 -11.24,-0.07 -14.03,-1.6 -17.48,6.33z"/>
   <path class="fil3" d="M62.56 512.67l68.02 -0.03 10.52 -79.52c0.94,-6.95 -0.17,-21.36 8.76,-21.35 8.74,0.01 7.69,13.43 8.61,20.19l10.68 80.37 67.98 0.36 -4.98 -114.6c-11.46,0.02 -52.88,2.49 -59.55,-1.58 -3.5,-4.27 -3.51,-6.01 0,-10.28 6.75,-4.12 46.99,-0.72 58.69,-1.85l-0.2 -12.27c-5.27,-1.96 -157.24,-1.94 -162.41,0.01l-6.12 140.56z"/>
   <path class="fil2" d="M499.82 548.04c0,15.48 -1.59,58.51 1.26,70.75 10.49,5.03 70.44,2.53 85.91,2.53 19.69,0 33.64,-11.98 35.1,-29.37 1.27,-15.16 -11.56,-32.54 -31.3,-32.54l-22.74 0c0,-25.34 5.12,-20.21 -59.38,-20.21 -5.9,0 -8.84,2.95 -8.84,8.84z"/>
   <path class="fil2" d="M378.54 548.04l0 11.37c-18.09,0 -33.51,-2.57 -45.21,9.12 -4.61,4.61 -9.58,14.56 -8.84,23.42 1.45,17.39 15.41,29.37 35.1,29.37 15.47,0 75.42,2.5 85.91,-2.53 2.85,-12.24 1.26,-55.28 1.26,-70.75 0,-5.9 -2.95,-8.84 -8.84,-8.84l-50.54 0c-5.9,0 -8.84,2.95 -8.84,8.84z"/>
   <path class="fil2" d="M176.39 548.04c0,15.48 -1.59,58.51 1.26,70.75 3.06,1.47 5.53,2.53 10.11,2.53l101.07 0c20.67,0 5.69,-40.73 -18.56,-50.93 -7.63,-3.21 -15.29,-4.66 -25.66,-4.66 0,-32.88 7.6,-26.53 -59.38,-26.53 -5.9,0 -8.84,2.95 -8.84,8.84z"/>
   <path class="fil2" d="M55.11 548.04l0 17.69c-24.88,0 -46.66,12.06 -52.52,37.18 -2.19,9.41 -2.85,18.4 8.3,18.4l101.07 0c4.58,0 7.05,-1.06 10.11,-2.53 2.85,-12.24 1.26,-55.28 1.26,-70.75 0,-5.9 -2.95,-8.84 -8.84,-8.84l-50.54 0c-5.9,0 -8.84,2.95 -8.84,8.84z"/>
   <path class="fil4" d="M506.39 512.45l66.59 0.23 -24.41 -141 -20.37 -0.58 12.78 98.86c0.98,7.5 7.43,28.19 -3.33,29.01 -9.11,0.7 -8.06,-11.85 -9.92,-26.81l-13.09 -100.63 -20.47 -0.41 12.24 141.34z"/>
   <path class="fil0" d="M426.54 40.16c-17.19,0 -34.11,-4.23 -34.11,8.85 0,4.08 4.59,6.31 8.84,6.31l144.02 0c7.64,0 8.85,-4.03 8.85,-8.84 0,-9.73 -24.21,-6.32 -34.11,-6.32 -0.83,-9.96 -9.07,-23.09 -15.11,-27.84 -20.66,-16.27 -41.61,-16.4 -62.54,-0.54 -6.67,5.05 -14.99,18.12 -15.84,28.38z"/>
   <path class="fil0" d="M103.12 40.16c-17.19,0 -34.11,-4.23 -34.11,8.85 0,4.08 4.59,6.31 8.84,6.31l109.91 0c16.84,0 7.64,-24.29 2.81,-31.87 -19.61,-30.81 -60.19,-30.86 -80.42,-1.51 -3.04,4.41 -6.52,11.96 -7.04,18.22z"/>
   <polygon class="fil4" points="453.68,512.67 492.87,512.68 480.61,371.39 465.92,371.21 "/>
   <polygon class="fil4" points="413.56,512.67 440.22,512.62 452.46,371.16 431.94,371.27 "/>
   <polygon class="fil4" points="373.5,512.54 400.08,512.69 418.45,371.17 397.97,371.31 "/>
   <path class="fil3" d="M190.34 607.01l93.06 0c-0.89,-14.71 -16.14,-26.31 -32.44,-26.94 -19.52,-0.75 -40.57,-0.03 -60.26,-0.03l-0.36 26.97z"/>
   <path class="fil3" d="M16.32 607l92.7 0 0.37 -26.97c-20.06,0 -41.11,-0.72 -60.63,0.03 -16.24,0.62 -31.61,12.26 -32.44,26.93z"/>
   <path class="fil4" d="M432.45 607.01l0.49 -13.49c-12.39,0 -32.71,1.2 -44.09,-0.29 -18.89,-2.48 -17.82,-16.41 -24.22,-19.93 -13.56,0 -22.33,0.69 -25.42,12.48 -2.99,11.44 5.68,20.24 15.5,21.12 22.16,1.99 54.46,0.1 77.73,0.1z"/>
   <path class="fil4" d="M513.71 593.51l0.17 13.5c24.6,-0 53,1.35 76.84,-0.03 10.35,-0.6 19.19,-8.74 16.85,-20.22 -2.48,-12.15 -11.89,-13.46 -25.64,-13.46 -5.81,3.19 -5.86,17.53 -24.21,19.93 -11.4,1.49 -31.69,0.29 -44.02,0.29z"/>
   <path class="fil2" d="M500.24 158.92c0,21.59 -5.35,28.62 16.8,36 7.17,2.39 17.82,-4.99 23.14,-8.99l0.48 -27.01c-0.03,-12.89 -5.43,-10.1 -29.55,-10.1 -8.46,0 -10.86,1.52 -10.86,10.1z"/>
   <path class="fil0" d="M176.82 158.92c0,21.59 -5.35,28.62 16.8,36 7.17,2.39 17.82,-4.99 23.14,-8.99l0.48 -27.01c-0.03,-12.86 -5.39,-10.1 -29.32,-10.1 -8.7,0 -11.1,1.52 -11.1,10.1z"/>
   <path class="fil3" d="M136.98 235.09l12.49 11.78 13.09 -11.98c-0.14,-12.06 -9.61,-92.98 -12.69,-98.99 -2.96,5.66 -12.58,87.25 -12.89,99.19z"/>
   <path class="fil4" d="M461.07 243.15l24.42 0c0.38,-8.33 -10.57,-104.78 -12.2,-107.47 -1.61,2.66 -12.59,99.19 -12.22,107.47z"/>
   <path class="fil5 str0" d="M117.39 41.01l64.95 0c-0.87,-14.24 -16.36,-26.91 -32.47,-26.91 -16.06,-0 -31.69,12.74 -32.48,26.91z"/>
   <path class="fil4" d="M440.81 41.01l64.95 0c-0.88,-14.24 -16.36,-26.91 -32.47,-26.91 -16.05,-0 -31.7,12.75 -32.48,26.91z"/>
   <path class="fil6" d="M513.71 580.05c21.09,0 41.81,3.26 51.61,-5.5 -2.51,-1.61 -6.63,-1.65 -10.1,-3.37l-1.07 -18.1 -40.43 0 -0 26.96z"/>
   <path class="fil6" d="M392.43 563.2l-0.95 7.99c-3.59,1.69 -7.76,1.77 -10.23,3.38 9.68,8.72 31.15,5.48 51.61,5.48l0.01 -26.96 -40.43 0 -0.01 10.11z"/>
   <polygon class="fil6" points="69,561.94 69.32,566.58 109.43,566.58 109.53,561.95 109.44,553.09 69.01,553.09 "/>
   <polygon class="fil6" points="190.29,561.94 190.6,566.58 230.24,566.58 230.81,561.95 230.72,553.09 190.29,553.09 "/>
   <path class="fil4" d="M461.89 109.29c10.69,17.49 12.12,17.47 22.43,0.36l-10.74 -11.62 -11.69 11.27z"/>
   <path class="fil3" d="M138.47 109.29c10.69,17.49 12.12,17.47 22.43,0.36l-10.74 -11.62 -11.69 11.27z"/>
   <path class="fil7" d="M513.7 174.08l0 2.53c3.34,6.35 7.97,5.1 13.11,1.73l0.44 -15.5 -4.69 -0.68 -8.87 0.11 0 11.81z"/>
   <path class="fil1" d="M190.28 174.08l0 2.53c3.34,6.35 7.97,5.1 13.11,1.73l0.44 -15.5 -4.69 -0.68 -8.86 0.11 -0.01 11.81z"/>
   <path class="fil7" d="M439.26 84.2l13.55 14.3 8.84 -8.45c-9.13,-5.33 -12.89,-9.12 -22.38,-5.85z"/>
   <path class="fil7" d="M115.79 84.14l13.6 14.36 8.83 -8.45c-3.96,-2.33 -7.31,-3.94 -11.03,-5.8 -5.92,-2.97 -5.18,-2.14 -11.4,-0.11z"/>
   <path class="fil7" d="M161.68 89.88l8.1 8.64 14.53 -14c-10.41,-3.61 -13.18,0.36 -22.64,5.36z"/>
   <path class="fil7" d="M485.11 89.88l8.1 8.64 14.56 -14.03c-10.29,-3.6 -13.37,0.49 -22.67,5.39z"/>
   <path class="fil2" d="M92.45 385.71c-7.18,4.14 -1.19,16.38 7.36,11.25 6.04,-3.62 1.47,-16.35 -7.36,-11.25z"/>
   <path class="fil2" d="M119.39 386c-2.19,1.36 -4.25,3.96 -2.61,8.09 1.38,3.46 5.44,5.29 9.69,3.02 6.57,-3.51 1.85,-16.64 -7.08,-11.11z"/>
   <path class="fil2" d="M143.95 394.9c12.41,9.69 15.45,-6.68 9.31,-9.31l-6.93 -0.48c-2.96,4.17 -3.75,2.86 -2.38,9.79z"/>
  </g>
 </g>
</svg>
