<?xml version="1.0" encoding="UTF-8"?>
<!DOCTYPE svg PUBLIC "-//W3C//DTD SVG 1.1//EN" "http://www.w3.org/Graphics/SVG/1.1/DTD/svg11.dtd">
<!-- Creator: CorelDRAW 2021 (64-Bit) -->
<svg xmlns="http://www.w3.org/2000/svg" xml:space="preserve" width="17.7087mm" height="17.78mm" version="1.1" style="shape-rendering:geometricPrecision; text-rendering:geometricPrecision; image-rendering:optimizeQuality; fill-rule:evenodd; clip-rule:evenodd"
viewBox="0 0 5416.39 5438.2"
 xmlns:xlink="http://www.w3.org/1999/xlink"
 xmlns:xodm="http://www.corel.com/coreldraw/odm/2003">
 <defs>
  <style type="text/css">
   <![CDATA[
    .fil0 {fill:#009B4C}
   ]]>
  </style>
 </defs>
 <g id="Layer_x0020_1">
  <metadata id="CorelCorpID_0Corel-Layer"/>
  <g id="_2065716533360">
   <path class="fil0" d="M2739.13 5292.73c1478.38,0 2677.29,-1185.06 2677.29,-2646.36 0,-1461.31 -1198.91,-2646.36 -2677.29,-2646.36 -1478.35,0 -2677.26,1185.06 -2677.26,2646.36 0,527.58 156.36,1019.16 425.64,1431.95l-0.24 -0.21 -487.24 1360.1 1475.19 -458.45 -0.34 -0.31c376.54,199.85 807.01,313.29 1264.24,313.29zm-6.94 -4852.11c1182.3,0 2141.11,986.83 2141.11,2203.69 0,1216.87 -958.81,2203.69 -2141.11,2203.69 -430.28,0 -830.87,-130.82 -1166.52,-355.78l0.61 0.58 -840.96 269.22 268.33 -831.39 0.55 0.55c-253.59,-362.08 -403.09,-806.52 -403.09,-1286.88 0,-1216.87 958.81,-2203.69 2141.08,-2203.69z"/>
   <path class="fil0" d="M1613.57 2043.73c-21.69,-329.63 59.12,-575.97 289.71,-700.63 81.79,-34.41 204.41,-29.52 294.05,2.94l263.96 555.41c19.58,45.33 15.81,96.41 -3.73,131.89 -55.42,113.38 -128.43,191.5 -211.35,249.86 193.12,457.66 527.12,746.33 966.61,895.53l284.02 -299.96c30.8,-33.71 68.08,-41.99 124.39,-4.07l533.94 274.57c3.76,57.87 3.09,113.11 -2.94,165.16 -36,385.66 -544.25,566.79 -926.08,393.73 -793.28,-248.85 -1497.86,-1115.99 -1612.59,-1664.43z"/>
  </g>
 </g>
</svg>
